<svg xmlns="http://www.w3.org/2000/svg" xmlns:xlink="http://www.w3.org/1999/xlink" viewBox="0 0 1000 1000"><defs><linearGradient id="c" x1="467.97" x2="467.97" y1="137.59" y2="54.56" gradientTransform="matrix(1 0 0 -1 0 1000)" gradientUnits="userSpaceOnUse"><stop offset="0" stop-color="#676c72" stop-opacity=".3"/><stop offset=".96" stop-color="#f9f9fa" stop-opacity=".01"/><stop offset="1" stop-color="#fff" stop-opacity="0"/></linearGradient><linearGradient id="a" x1="637.08" x2="678.88" y1="337.62" y2="313.49" gradientTransform="matrix(1 0 0 -1 0 1000)" gradientUnits="userSpaceOnUse"><stop offset=".51" stop-color="#fff"/><stop offset=".74" stop-color="#f2f3f5"/><stop offset="1" stop-color="#dfe1e5"/></linearGradient><linearGradient id="d" x1="594.84" x2="721.13" y1="311.09" y2="238.17" xlink:href="#a"/><linearGradient id="e" x1="555.29" x2="760.69" y1="240.15" y2="121.56" gradientTransform="matrix(1 0 0 -1 0 1000)" gradientUnits="userSpaceOnUse"><stop offset=".54" stop-color="#fff"/><stop offset=".75" stop-color="#f2f3f5"/><stop offset="1" stop-color="#dfe1e5"/></linearGradient><linearGradient id="f" x1="547.39" x2="679.11" y1="180.86" y2="180.86" gradientTransform="matrix(1 0 0 -1 0 1000)" gradientUnits="userSpaceOnUse"><stop offset="0" stop-color="#676c72" stop-opacity=".5"/><stop offset=".27" stop-color="#9a9da1" stop-opacity=".33"/><stop offset=".73" stop-color="#e3e4e5" stop-opacity=".09"/><stop offset="1" stop-color="#fff" stop-opacity="0"/></linearGradient><linearGradient id="b" x1="435.26" x2="511.05" y1="221.09" y2="221.09" gradientTransform="matrix(1 0 0 -1 0 1000)" gradientUnits="userSpaceOnUse"><stop offset="0" stop-color="#676c72" stop-opacity=".7"/><stop offset=".27" stop-color="#70767c" stop-opacity=".58"/><stop offset=".77" stop-color="#888f97" stop-opacity=".26"/><stop offset="1" stop-color="#959ca5" stop-opacity=".1"/></linearGradient><linearGradient id="g" x1="435.26" x2="511.05" y1="249.55" y2="249.55" xlink:href="#b"/><linearGradient id="h" x1="435.26" x2="511.05" y1="276.05" y2="276.05" xlink:href="#b"/></defs><path fill="#4688f1" d="M774.41 395.76V210l-283-81.67L208.5 210v185.76s-10.7 326.72 283 454.09c293.61-127.37 282.91-454.09 282.91-454.09z"/><path fill="#fff" d="M582.38 395.8h-13.82v-34a77.11 77.11 0 0 0-154.21 0v34h-13.82a21.85 21.85 0 0 0-21.85 21.85V562.3a21.86 21.86 0 0 0 21.85 21.86h181.85a21.86 21.86 0 0 0 21.85-21.86V417.65a21.85 21.85 0 0 0-21.85-21.85zm-138.45-34a47.53 47.53 0 0 1 95.05 0v34h-95.05z"/><path fill="#3566b8" d="M504.09 529.72v-29.94a32 32 0 1 0-25.27 0v29.94z"/><path fill="none" stroke="#dfe1e5" stroke-linecap="round" stroke-linejoin="round" stroke-width="5" d="M704 268.87v532.78a45.41 45.41 0 0 0 45.4 45.42h45a24.83 24.83 0 0 1 24.82 24.83 24.83 24.83 0 0 1-24.82 24.83H550.64c-15.42 0-28.47 12.06-28.93 27.48a28.38 28.38 0 0 0 27.53 29.19h65.11"/><path fill="url(#c)" d="M102.35 874.61v-16.05h431.41l215.08.33L833.59 943h-571l-46.93-46.9-78.25-.36a32.71 32.71 0 0 1-22.5-9.09z"/><rect width="30.7" height="52.91" x="642.63" y="647.99" fill="url(#a)" rx="6.54" ry="6.54"/><path fill="#fbbc05" d="M649.15 625.79l.1-.17.13-.2c1.37-2.11 8.72-13.49 8.66-13.44l9 14.07a10.3 10.3 0 0 1 1.48 5.27 10.46 10.46 0 0 1-20.91 0 10.29 10.29 0 0 1 1.54-5.53z"/><rect width="135.99" height="80.06" x="589.99" y="685.34" fill="url(#d)" rx="16.35" ry="16.35"/><path fill="none" stroke="#fbbc05" stroke-linecap="round" stroke-linejoin="round" stroke-width="5" d="M589.31 722.91a12.23 12.23 0 0 0 7.69-2.41 21.58 21.58 0 0 1 24 0c2.27 1.4 3.91 2.41 7.64 2.41a12.23 12.23 0 0 0 7.64-2.41 21.54 21.54 0 0 1 24 0c2.27 1.4 3.91 2.41 7.64 2.41a12.23 12.23 0 0 0 7.64-2.41 21.54 21.54 0 0 1 24 0 13.3 13.3 0 0 0 15.27 0 20.41 20.41 0 0 1 12-3.64"/><rect width="221.18" height="115.21" x="547.4" y="761.54" fill="url(#e)" rx="16.35" ry="16.35"/><path fill="none" stroke="#fbbc05" stroke-linecap="round" stroke-linejoin="round" stroke-width="4.75" d="M546.4 788.66c11.15 0 11.15 8 22.3 8s11.15-8 22.29-8 11.15 8 22.3 8 11.15-8 22.29-8 11.15 8 22.3 8 11.15-8 22.3-8 11.15 8 22.3 8 11.15-8 22.3-8 11.15 8 22.3 8 11.15-8 22.31-8"/><path fill="url(#f)" d="M563.89 761.54h-.15a16.35 16.35 0 0 0-16.35 16.35v82.51a16.35 16.35 0 0 0 16.35 16.35h55.62v-48a28.44 28.44 0 0 0-8.36-20.08z"/><rect width="119.6" height="232.45" x="444.97" y="644.26" fill="#bbbfc3" rx="18" ry="18" transform="rotate(-.57 507.847 764.472)"/><rect width="119.59" height="232.53" x="435.85" y="644.29" fill="#dfe1e5" rx="18" ry="18" transform="rotate(-.34 494.874 759.8)"/><path fill="none" stroke="#babfc5" stroke-linecap="round" stroke-linejoin="round" stroke-width="5" d="M477.63 656.57h40.01"/><path fill="#fff" d="M534.77 858.6h-77.64A11.63 11.63 0 0 1 445.5 847l-.32-168.19a11.63 11.63 0 0 1 11.63-11.63h77.65a11.62 11.62 0 0 1 11.62 11.62l.32 168.2a11.63 11.63 0 0 1-11.63 11.6z"/><path fill="url(#b)" d="M451.15 680.75l-15.89.23 1.05 178.2a18 18 0 0 0 18.11 17.89l56.63-.19V755.29a35.3 35.3 0 0 0-10.35-25z"/><path fill="#4688f1" d="M496.28 698.85A36.73 36.73 0 1 0 533 735.59a36.72 36.72 0 0 0-36.71-36.73zm0 11a11 11 0 1 1-11 11 11 11 0 0 1 11-11zm0 52.15a26.44 26.44 0 0 1-22-11.82c.09-7.29 14.71-11.32 22-11.32s21.93 4 22 11.32a26.44 26.44 0 0 1-22 11.82z"/><path fill="none" stroke="#b7251d" stroke-linecap="round" stroke-linejoin="round" stroke-width="5" d="M469.83 822.23H503m-33.17-26.33h22.16"/><path fill="none" stroke="#df382b" stroke-linecap="round" stroke-linejoin="round" stroke-width="5" d="M469.83 809.07h52.28"/><path fill="none" d="M501.14 730.77A11 11 0 1 0 486.41 716l14.29 14.29zm9.91 26.73a26.86 26.86 0 0 0 7.27-7.3c-.06-4.16-4.83-7.25-10.27-9.14a35.38 35.38 0 0 1 3 14.23z"/><path fill="url(#g)" d="M474.25 750.2a26.42 26.42 0 0 0 36.62 7.42l.18-.12v-2.21a35.38 35.38 0 0 0-3-14.23 38.76 38.76 0 0 0-11.77-2.18c-7.28 0-21.94 4.03-22.03 11.32z"/><path fill="url(#h)" d="M496.28 731.91a10.91 10.91 0 0 0 4.86-1.14l-.44-.46L486.41 716a11 11 0 0 0 9.87 15.89z"/><path fill="#2c66bf" d="M496.28 762a26.44 26.44 0 0 1-22-11.82c.09-7.29 14.71-11.32 22-11.32a38.76 38.76 0 0 1 11.77 2.14 35.11 35.11 0 0 0-6.91-10.29A11 11 0 0 1 486.41 716l-10.8-10.81a36.73 36.73 0 0 0 35.44 64V757.5a26.27 26.27 0 0 1-14.77 4.5z"/><path fill="#b7251d" d="M511.05 811.57h-41.22a2.5 2.5 0 0 1 0-5h41.22z"/><path fill="#df382b" d="M692.07 314.66h24.06a3.54 3.54 0 0 0 0-7.08h-24.06a3.54 3.54 0 0 0 0 7.08z"/><circle cx="703.75" cy="303.88" r="11.01" fill="#df382b"/><path fill="#df382b" d="M605.34 177.45c5.1 65.8 70.91 119.12 98.14 119.12 34 0 93.6-51 98.7-119.12 4.92-65.61-44.18-119.13-98.7-119.13s-103.23 53.53-98.14 119.13z"/><path fill="#b7251d" d="M693 286.08c35.36-7.66 81.87-55.88 83-121.11.7-40.26-10.13-75.12-31.14-96.11 35.41 18.73 60.95 60.4 57.33 108.59-5.1 68.07-64.67 119.12-98.7 119.12-10.76 0-27.53-8.32-44.2-22.44 13.06 9.17 25.34 13.76 33.71 11.95z"/><path fill="#bbbfc3" d="M221.47 672.81h214.77a18 18 0 0 1 18 18v167.72H221.47a18 18 0 0 1-18-18V690.81a18 18 0 0 1 18-18z"/><path fill="#dfe1e5" d="M215.47 672.81h214.76a18 18 0 0 1 18 18v167.72H197.47V690.81a18 18 0 0 1 18-18z"/><rect width="229.56" height="163.73" x="208.08" y="683.9" fill="#fff" rx="8.19" ry="8.19"/><path fill="#bbbfc3" d="M454.26 858.51l-258.48.06v19.29l240.48-.05a18 18 0 0 0 18-18z"/><path fill="#cdd0d5" d="M94.61 858.56h251.63v1.3a18 18 0 0 1-18 18H112.61a18 18 0 0 1-18-18v-1.3z"/><path fill="#eff0f2" d="M234.23 867.36h-38.58a8.56 8.56 0 0 1-8.54-8.54.26.26 0 0 1 .26-.26h55.38a.28.28 0 0 1 .27.27 8.81 8.81 0 0 1-8.79 8.53z"/><rect width="150.53" height="52.23" x="247.59" y="741.84" fill="none" stroke="#34a853" stroke-miterlimit="10" stroke-width="5" rx="6.96" ry="6.96"/><path fill="#34a853" d="M271.91 769.77l-7.52-2.24 1.15-3.75 7.52 2.78-.23-8.55h3.81l-.24 8.68 7.39-2.74 1.15 3.78-7.65 2.27 4.93 6.74-3.09 2.35-4.63-7.18-4.48 7-3.11-2.26zm27.09 0l-7.52-2.24 1.14-3.75 7.52 2.78-.24-8.56h3.81l-.25 8.68 7.39-2.74 1.15 3.78-7.64 2.28 4.93 6.74-3.09 2.35-4.63-7.18-4.49 7-3.08-2.26zm27 0l-7.52-2.24 1.15-3.75 7.52 2.78L327 758h3.81l-.25 8.68 7.4-2.74 1.14 3.78-7.68 2.28 4.93 6.74-3.09 2.35-4.63-7.18-4.48 7-3.15-2.26zm27.1 0l-7.52-2.24 1.15-3.75 7.52 2.78L354 758h3.81l-.25 8.68L365 764l1.15 3.78-7.67 2.22 4.93 6.74-3.09 2.35-4.63-7.18-4.48 7-3.11-2.26z"/></svg>
